<?xml version="1.0" encoding="UTF-8" standalone="no"?>
<svg
   version="1.1"
   width="1150px"
   height="1150px"
   style="shape-rendering:geometricPrecision; text-rendering:geometricPrecision; image-rendering:optimizeQuality; fill-rule:evenodd; clip-rule:evenodd"
   id="svg76"
   sodipodi:docname="image (1).svg"
   inkscape:version="1.4 (86a8ad7, 2024-10-11)"
   xmlns:inkscape="http://www.inkscape.org/namespaces/inkscape"
   xmlns:sodipodi="http://sodipodi.sourceforge.net/DTD/sodipodi-0.dtd"
   xmlns="http://www.w3.org/2000/svg"
   xmlns:svg="http://www.w3.org/2000/svg">
  <defs
     id="defs76" />
  <sodipodi:namedview
     id="namedview76"
     pagecolor="#ffffff"
     bordercolor="#000000"
     borderopacity="0.25"
     inkscape:showpageshadow="2"
     inkscape:pageopacity="0.0"
     inkscape:pagecheckerboard="0"
     inkscape:deskcolor="#d1d1d1"
     inkscape:zoom="0.70173913"
     inkscape:cx="574.28748"
     inkscape:cy="780.20446"
     inkscape:window-width="1920"
     inkscape:window-height="1009"
     inkscape:window-x="1912"
     inkscape:window-y="-8"
     inkscape:window-maximized="1"
     inkscape:current-layer="svg76" />
  <g
     id="g1">
    <path
       style="opacity:0.997"
       fill="#fefefe"
       d="M 540.5,-0.5 C 563.167,-0.5 585.833,-0.5 608.5,-0.5C 785.969,14.0017 928.803,91.3351 1037,231.5C 1103.72,323.661 1141.22,426.661 1149.5,540.5C 1149.5,563.167 1149.5,585.833 1149.5,608.5C 1135,785.969 1057.66,928.803 917.5,1037C 825.339,1103.72 722.339,1141.22 608.5,1149.5C 585.833,1149.5 563.167,1149.5 540.5,1149.5C 363.031,1135 220.197,1057.66 112,917.5C 45.2757,825.339 7.77574,722.339 -0.5,608.5C -0.5,585.833 -0.5,563.167 -0.5,540.5C 14.0017,363.031 91.3351,220.197 231.5,112C 323.661,45.2757 426.661,7.77574 540.5,-0.5 Z"
       id="path1" />
  </g>
  <g
     id="g2"
     transform="matrix(1.0210516,0,0,1.020384,39.134402,-1.1514254)">
    <path
       style="opacity:1"
       fill="#747372"
       d="m 519.5,57.5 c 7.823,-1.1561 15.823,-1.3228 24,-0.5 0.916,0.2784 1.582,0.7784 2,1.5 -8.633,-0.8772 -17.3,-1.2105 -26,-1 z"
       id="path2" />
  </g>
  <g
     id="g3"
     transform="matrix(1.0210516,0,0,1.020384,39.134402,-1.1514254)">
    <path
       style="opacity:1"
       fill="#252422"
       d="m 518.5,57.5 c 0.333,0 0.667,0 1,0 8.7,-0.2105 17.367,0.1228 26,1 24.46,6.9653 39.627,22.9653 45.5,48 0.667,16.667 0.667,33.333 0,50 -3.74,21.524 -15.24,37.191 -34.5,47 -2.897,0.629 -5.564,1.629 -8,3 -9.911,1.71 -19.911,2.377 -30,2 -2.015,-1.424 -4.348,-2.09 -7,-2 -23.086,-8.925 -36.92,-25.592 -41.5,-50 -0.667,-16.667 -0.667,-33.333 0,-50 3.598,-16.3697 12.098,-29.5363 25.5,-39.5 3.41,-2.3716 7.077,-4.2049 11,-5.5 4.267,-0.7556 8.267,-2.089 12,-4 z"
       id="path3" />
  </g>
  <g
     id="g4"
     transform="matrix(1.0210516,0,0,1.020384,39.134402,-1.1514254)">
    <path
       style="opacity:1"
       fill="#70706e"
       d="m 518.5,57.5 c -3.733,1.911 -7.733,3.2444 -12,4 3.585,-2.3061 7.585,-3.6394 12,-4 z"
       id="path4" />
  </g>
  <g
     id="g5"
     transform="matrix(1.0210516,0,0,1.020384,39.134402,-1.1514254)">
    <path
       style="opacity:1"
       fill="#8f8f8e"
       d="m 840.5,182.5 c -6.702,-0.164 -13.369,0.169 -20,1 3.534,-1.548 7.367,-2.214 11.5,-2 3.021,0.002 5.854,0.336 8.5,1 z"
       id="path5" />
  </g>
  <g
     id="g6"
     transform="matrix(1.0210516,0,0,1.020384,39.134402,-1.1514254)">
    <path
       style="opacity:1"
       fill="#252422"
       d="m 216.5,182.5 c 8.388,-0.273 16.721,0.06 25,1 3.439,1.704 7.105,3.038 11,4 4.735,2.536 9.402,5.369 14,8.5 10.833,10.833 21.667,21.667 32.5,32.5 19.862,30.083 17.362,58.25 -7.5,84.5 -4.727,3.691 -9.727,6.858 -15,9.5 -3.895,0.962 -7.561,2.296 -11,4 -8.633,0.877 -17.3,1.211 -26,1 -2.015,-1.424 -4.348,-2.09 -7,-2 -7.356,-2.178 -14.022,-5.678 -20,-10.5 -10.5,-10.5 -21,-21 -31.5,-31.5 -15.13,-19.786 -18.464,-41.453 -10,-65 6.805,-14.973 17.638,-25.64 32.5,-32 4.665,-0.557 8.998,-1.89 13,-4 z"
       id="path6" />
  </g>
  <g
     id="g7"
     transform="matrix(1.0210516,0,0,1.020384,39.134402,-1.1514254)">
    <path
       style="opacity:1"
       fill="#252422"
       d="m 840.5,182.5 c 4.118,0.03 8.118,0.697 12,2 1.533,1.745 3.533,2.745 6,3 26.64,12.933 38.473,34.266 35.5,64 -1.575,12.071 -6.242,22.738 -14,32 -9.167,9.167 -18.333,18.333 -27.5,27.5 -4.398,2.857 -8.732,5.691 -13,8.5 -3.895,0.962 -7.561,2.296 -11,4 -3.54,0.253 -6.873,0.919 -10,2 -6.68,-0.112 -13.347,-0.446 -20,-1 -3.439,-1.704 -7.105,-3.038 -11,-4 -19.415,-8.926 -31.249,-23.926 -35.5,-45 -2.794,-18.054 1.206,-34.387 12,-49 10.833,-10.833 21.667,-21.667 32.5,-32.5 7.227,-5.451 15.227,-8.951 24,-10.5 6.631,-0.831 13.298,-1.164 20,-1 z"
       id="path7" />
  </g>
  <g
     id="g8"
     transform="matrix(1.0210516,0,0,1.020384,39.134402,-1.1514254)">
    <path
       style="opacity:1"
       fill="#9b9b9a"
       d="m 241.5,183.5 c 4.208,0.177 7.874,1.51 11,4 -3.895,-0.962 -7.561,-2.296 -11,-4 z"
       id="path8" />
  </g>
  <g
     id="g9"
     transform="matrix(1.0210516,0,0,1.020384,39.134402,-1.1514254)">
    <path
       style="opacity:1"
       fill="#828180"
       d="m 216.5,182.5 c -4.002,2.11 -8.335,3.443 -13,4 4.002,-2.11 8.335,-3.443 13,-4 z"
       id="path9" />
  </g>
  <g
     id="g10"
     transform="matrix(1.0210516,0,0,1.020384,39.134402,-1.1514254)">
    <path
       style="opacity:1"
       fill="#888786"
       d="m 852.5,184.5 c 2.467,0.255 4.467,1.255 6,3 -2.467,-0.255 -4.467,-1.255 -6,-3 z"
       id="path10" />
  </g>
  <g
     id="g11"
     transform="matrix(1.0210516,0,0,1.020384,39.134402,-1.1514254)">
    <path
       style="opacity:1"
       fill="#acacab"
       d="m 556.5,203.5 c -2.117,2.155 -4.784,3.155 -8,3 2.436,-1.371 5.103,-2.371 8,-3 z"
       id="path11" />
  </g>
  <g
     id="g12"
     transform="matrix(1.0210516,0,0,1.020384,39.134402,-1.1514254)">
    <path
       style="opacity:1"
       fill="#a09f9e"
       d="m 511.5,206.5 c 2.652,-0.09 4.985,0.576 7,2 -2.652,0.09 -4.985,-0.576 -7,-2 z"
       id="path12" />
  </g>
  <g
     id="g13"
     transform="matrix(1.0210516,0,0,1.020384,39.134402,-1.1514254)">
    <path
       style="opacity:1"
       fill="#858483"
       d="m 548.5,206.5 c -2.377,1.387 -5.043,2.221 -8,2.5 -7.512,0.822 -14.845,0.655 -22,-0.5 10.089,0.377 20.089,-0.29 30,-2 z"
       id="path13" />
  </g>
  <g
     id="g14"
     transform="matrix(1.0210516,0,0,1.020384,39.134402,-1.1514254)">
    <path
       style="opacity:1"
       fill="#71706f"
       d="m 545.5,271.5 c -19.77,-0.629 -39.436,0.371 -59,3 6.137,-1.478 12.471,-2.644 19,-3.5 13.506,-0.827 26.84,-0.66 40,0.5 z"
       id="path14" />
  </g>
  <g
     id="g15"
     transform="matrix(1.0210516,0,0,1.020384,39.134402,-1.1514254)">
    <path
       style="opacity:1"
       fill="#252422"
       d="m 545.5,271.5 c 5.984,0.574 11.984,0.907 18,1 4.419,1.472 9.086,2.138 14,2 0.333,0 0.667,0 1,0 5.087,1.788 10.42,3.121 16,4 3.333,0.667 6.667,1.333 10,2 1.602,1.574 3.602,2.241 6,2 5.441,2.371 11.108,4.371 17,6 0.333,0 0.667,0 1,0 2.009,1.565 4.343,2.565 7,3 97.469,43.696 153.969,118.696 169.5,225 3.749,46.842 -2.918,92.175 -20,136 -12.051,30.105 -26.718,58.771 -44,86 -18.638,27.471 -37.472,54.804 -56.5,82 -102.667,1.333 -205.333,1.333 -308,0 -19.028,-27.196 -37.862,-54.529 -56.5,-82 -22.765,-35.201 -40.432,-72.868 -53,-113 -27.696,-101.874 -6.362,-191.874 64,-270 27.477,-28.646 59.644,-50.313 96.5,-65 7.014,-1.559 13.68,-3.892 20,-7 0.333,0 0.667,0 1,0 1.903,-0.296 3.57,-0.963 5,-2 0.333,0 0.667,0 1,0 2.398,0.241 4.398,-0.426 6,-2 3,-0.667 6,-1.333 9,-2 5.874,-0.549 11.541,-1.549 17,-3 19.564,-2.629 39.23,-3.629 59,-3 z"
       id="path15" />
  </g>
  <g
     id="g16"
     transform="matrix(1.0210516,0,0,1.020384,39.134402,-1.1514254)">
    <path
       style="opacity:1"
       fill="#a1a1a0"
       d="m 563.5,272.5 c 4.914,-0.138 9.581,0.528 14,2 -4.914,0.138 -9.581,-0.528 -14,-2 z"
       id="path16" />
  </g>
  <g
     id="g17"
     transform="matrix(1.0210516,0,0,1.020384,39.134402,-1.1514254)">
    <path
       style="opacity:1"
       fill="#7c7c7a"
       d="m 486.5,274.5 c -5.459,1.451 -11.126,2.451 -17,3 5.33,-2.167 10.997,-3.167 17,-3 z"
       id="path17" />
  </g>
  <g
     id="g18"
     transform="matrix(1.0210516,0,0,1.020384,39.134402,-1.1514254)">
    <path
       style="opacity:1"
       fill="#8d8d8c"
       d="m 578.5,274.5 c 5.712,0.276 11.045,1.61 16,4 -5.58,-0.879 -10.913,-2.212 -16,-4 z"
       id="path18" />
  </g>
  <g
     id="g19"
     transform="matrix(1.0210516,0,0,1.020384,39.134402,-1.1514254)">
    <path
       style="opacity:1"
       fill="#6d6c6b"
       d="m 460.5,279.5 c -1.602,1.574 -3.602,2.241 -6,2 1.602,-1.574 3.602,-2.241 6,-2 z"
       id="path19" />
  </g>
  <g
     id="g20"
     transform="matrix(1.0210516,0,0,1.020384,39.134402,-1.1514254)">
    <path
       style="opacity:1"
       fill="#828281"
       d="m 453.5,281.5 c -1.43,1.037 -3.097,1.704 -5,2 1.135,-1.713 2.802,-2.38 5,-2 z"
       id="path20" />
  </g>
  <g
     id="g21"
     transform="matrix(1.0210516,0,0,1.020384,39.134402,-1.1514254)">
    <path
       style="opacity:1"
       fill="#999898"
       d="m 604.5,280.5 c 2.398,-0.241 4.398,0.426 6,2 -2.398,0.241 -4.398,-0.426 -6,-2 z"
       id="path21" />
  </g>
  <g
     id="g22"
     transform="matrix(1.0210516,0,0,1.020384,39.134402,-1.1514254)">
    <path
       style="opacity:1"
       fill="#969594"
       d="m 610.5,282.5 c 6.2,0.842 11.867,2.842 17,6 -5.892,-1.629 -11.559,-3.629 -17,-6 z"
       id="path22" />
  </g>
  <g
     id="g23"
     transform="matrix(1.0210516,0,0,1.020384,39.134402,-1.1514254)">
    <path
       style="opacity:1"
       fill="#737372"
       d="m 447.5,283.5 c -6.32,3.108 -12.986,5.441 -20,7 6.199,-3.422 12.866,-5.755 20,-7 z"
       id="path23" />
  </g>
  <g
     id="g24"
     transform="matrix(1.0210516,0,0,1.020384,39.134402,-1.1514254)">
    <path
       style="opacity:1"
       fill="#aeaead"
       d="m 628.5,288.5 c 2.991,-0.334 5.324,0.666 7,3 -2.657,-0.435 -4.991,-1.435 -7,-3 z"
       id="path24" />
  </g>
  <g
     id="g25"
     transform="matrix(1.0210516,0,0,1.020384,39.134402,-1.1514254)">
    <path
       style="opacity:1"
       fill="#979796"
       d="m 787.5,320.5 c 3.895,0.962 7.561,2.296 11,4 -4.208,-0.177 -7.874,-1.51 -11,-4 z"
       id="path25" />
  </g>
  <g
     id="g26"
     transform="matrix(1.0210516,0,0,1.020384,39.134402,-1.1514254)">
    <path
       style="opacity:1"
       fill="#9e9e9d"
       d="m 839.5,319.5 c -3.126,2.49 -6.792,3.823 -11,4 3.439,-1.704 7.105,-3.038 11,-4 z"
       id="path26" />
  </g>
  <g
     id="g27"
     transform="matrix(1.0210516,0,0,1.020384,39.134402,-1.1514254)">
    <path
       style="opacity:1"
       fill="#acabab"
       d="m 276.5,322.5 c -3.126,2.49 -6.792,3.823 -11,4 3.439,-1.704 7.105,-3.038 11,-4 z"
       id="path27" />
  </g>
  <g
     id="g28"
     transform="matrix(1.0210516,0,0,1.020384,39.134402,-1.1514254)">
    <path
       style="opacity:1"
       fill="#a2a2a1"
       d="m 828.5,323.5 c -0.418,0.722 -1.084,1.222 -2,1.5 -2.646,0.497 -5.313,0.664 -8,0.5 3.127,-1.081 6.46,-1.747 10,-2 z"
       id="path28" />
  </g>
  <g
     id="g29"
     transform="matrix(1.0210516,0,0,1.020384,39.134402,-1.1514254)">
    <path
       style="opacity:1"
       fill="#9b9b9a"
       d="m 798.5,324.5 c 6.653,0.554 13.32,0.888 20,1 -6.731,1.377 -13.398,1.043 -20,-1 z"
       id="path29" />
  </g>
  <g
     id="g30"
     transform="matrix(1.0210516,0,0,1.020384,39.134402,-1.1514254)">
    <path
       style="opacity:1"
       fill="#a1a0a0"
       d="m 232.5,325.5 c 2.652,-0.09 4.985,0.576 7,2 -2.652,0.09 -4.985,-0.576 -7,-2 z"
       id="path30" />
  </g>
  <g
     id="g31"
     transform="matrix(1.0210516,0,0,1.020384,39.134402,-1.1514254)">
    <path
       style="opacity:1"
       fill="#9e9e9d"
       d="m 561.5,426.5 c -0.995,-10.821 -1.328,-21.821 -1,-33 -20,0 -40,0 -60,0 0.328,10.846 -0.006,21.513 -1,32 0,-11 0,-22 0,-33 20.667,0 41.333,0 62,0 0,11.333 0,22.667 0,34 z"
       id="path31" />
  </g>
  <g
     id="g32"
     transform="matrix(1.0210516,0,0,1.020384,39.134402,-1.1514254)">
    <path
       style="opacity:1"
       fill="#fdfdfd"
       d="m 561.5,426.5 c 2.015,1.424 4.348,2.09 7,2 25.864,5.995 48.031,18.662 66.5,38 1.697,2.199 3.197,4.532 4.5,7 -16.667,11.333 -33.333,22.667 -50,34 -5.503,-5.906 -11.837,-10.573 -19,-14 -1.676,-2.334 -4.009,-3.334 -7,-3 -1.109,-0.057 -2.109,-0.39 -3,-1 -2.015,-1.424 -4.348,-2.09 -7,-2 -0.667,0 -1.333,0 -2,0 -0.418,-0.722 -1.084,-1.222 -2,-1.5 -2.646,-0.497 -5.313,-0.664 -8,-0.5 -4.655,-0.666 -9.488,-0.999 -14.5,-1 -6.746,-0.22 -13.246,0.446 -19.5,2 -0.333,0 -0.667,0 -1,0 -6.769,-0.181 -13.102,1.153 -19,4 -19.116,8.182 -23.283,21.182 -12.5,39 2.4,1.915 4.9,3.581 7.5,5 0.473,1.406 1.473,2.073 3,2 2.845,1.523 5.845,2.523 9,3 2.645,1.81 5.645,2.81 9,3 4.307,0.827 8.64,1.493 13,2 8.393,2.155 17.059,3.155 26,3 6.333,0.667 12.667,1.333 19,2 0.418,0.722 1.084,1.222 2,1.5 3.67,0.548 7.337,1.048 11,1.5 2.015,1.424 4.348,2.09 7,2 4.071,2.135 8.405,3.468 13,4 0.473,1.406 1.473,2.073 3,2 48.897,22.809 65.397,60.142 49.5,112 -9.988,23.159 -26.821,38.826 -50.5,47 -2.897,0.629 -5.564,1.629 -8,3 -8.887,2.895 -17.887,4.895 -27,6 -0.994,10.487 -1.328,21.154 -1,32 -20,0 -40,0 -60,0 0.328,-11.179 -0.005,-22.179 -1,-33 -0.111,-0.617 -0.444,-1.117 -1,-1.5 -2.646,-0.497 -5.313,-0.664 -8,-0.5 -5.733,-2.578 -11.733,-4.578 -18,-6 -20.701,-8.019 -37.701,-21.019 -51,-39 16.283,-11.815 32.95,-23.148 50,-34 7.112,8.125 15.779,13.791 26,17 3.005,1.777 6.338,2.777 10,3 2.469,0.817 5.135,1.317 8,1.5 8.994,0.5 17.994,0.666 27,0.5 6.262,0.395 12.262,-0.272 18,-2 2.87,-1.134 5.87,-1.8 9,-2 3.216,0.155 5.883,-0.845 8,-3 11.972,-5.954 16.472,-15.621 13.5,-29 -1.211,-3.259 -3.044,-6.092 -5.5,-8.5 -5.48,-4.352 -11.48,-7.519 -18,-9.5 -6.19,-3.133 -12.857,-4.8 -20,-5 -3.542,0.313 -6.875,-0.021 -10,-1 -6.817,-1.065 -13.817,-1.732 -21,-2 -11.518,-1.104 -22.852,-3.104 -34,-6 -2.436,-1.371 -5.103,-2.371 -8,-3 -2.015,-1.424 -4.348,-2.09 -7,-2 -1.676,-2.334 -4.009,-3.334 -7,-3 -33.683,-15.03 -51.016,-41.03 -52,-78 0.496,-39.008 18.829,-65.675 55,-80 4.415,-0.361 8.415,-1.694 12,-4 2.652,0.09 4.985,-0.576 7,-2 5.989,0.133 11.656,-0.867 17,-3 0.994,-10.487 1.328,-21.154 1,-32 20,0 40,0 60,0 -0.328,11.179 0.005,22.179 1,33 z"
       id="path32" />
  </g>
  <g
     id="g33"
     transform="matrix(1.0210516,0,0,1.020384,39.134402,-1.1514254)">
    <path
       style="opacity:1"
       fill="#a2a2a1"
       d="m 499.5,425.5 c -5.344,2.133 -11.011,3.133 -17,3 5.39,-1.875 11.056,-2.875 17,-3 z"
       id="path33" />
  </g>
  <g
     id="g34"
     transform="matrix(1.0210516,0,0,1.020384,39.134402,-1.1514254)">
    <path
       style="opacity:1"
       fill="#80807f"
       d="m 561.5,426.5 c 2.652,-0.09 4.985,0.576 7,2 -2.652,0.09 -4.985,-0.576 -7,-2 z"
       id="path34" />
  </g>
  <g
     id="g35"
     transform="matrix(1.0210516,0,0,1.020384,39.134402,-1.1514254)">
    <path
       style="opacity:1"
       fill="#949392"
       d="m 482.5,428.5 c -2.015,1.424 -4.348,2.09 -7,2 2.015,-1.424 4.348,-2.09 7,-2 z"
       id="path35" />
  </g>
  <g
     id="g36"
     transform="matrix(1.0210516,0,0,1.020384,39.134402,-1.1514254)">
    <path
       style="opacity:1"
       fill="#a7a7a6"
       d="m 475.5,430.5 c -3.585,2.306 -7.585,3.639 -12,4 3.585,-2.306 7.585,-3.639 12,-4 z"
       id="path36" />
  </g>
  <g
     id="g37"
     transform="matrix(1.0210516,0,0,1.020384,39.134402,-1.1514254)">
    <path
       style="opacity:1"
       fill="#a2a2a1"
       d="m 541.5,485.5 c -11.352,-0.127 -22.685,0.206 -34,1 6.254,-1.554 12.754,-2.22 19.5,-2 5.012,10e-4 9.845,0.334 14.5,1 z"
       id="path37" />
  </g>
  <g
     id="g38"
     transform="matrix(1.0210516,0,0,1.020384,39.134402,-1.1514254)">
    <path
       style="opacity:1"
       fill="#a5a5a4"
       d="m 541.5,485.5 c 2.687,-0.164 5.354,0.003 8,0.5 0.916,0.278 1.582,0.778 2,1.5 -3.54,-0.253 -6.873,-0.919 -10,-2 z"
       id="path38" />
  </g>
  <g
     id="g39"
     transform="matrix(1.0210516,0,0,1.020384,39.134402,-1.1514254)">
    <path
       style="opacity:1"
       fill="#878685"
       d="m 91.5,485.5 c -3.4385,1.704 -7.1052,3.038 -11,4 3.1257,-2.49 6.7924,-3.823 11,-4 z"
       id="path39" />
  </g>
  <g
     id="g40"
     transform="matrix(1.0210516,0,0,1.020384,39.134402,-1.1514254)">
    <path
       style="opacity:1"
       fill="#252422"
       d="m 91.5,485.5 c 15.667,0 31.333,0 47,0 6,1.216 12,2.883 18,5 30.689,16.059 41.855,41.059 33.5,75 -5.757,16.251 -16.257,28.251 -31.5,36 -6.09,2.062 -12.09,4.062 -18,6 -1.333,0 -2.667,0 -4,0 -13.337,0.167 -26.671,0 -40,-0.5 -4.7425,-0.529 -9.4092,-1.362 -14,-2.5 -33.4723,-14.607 -46.6389,-39.94 -39.5,-76 6.3283,-19.158 18.8283,-32.158 37.5,-39 3.8948,-0.962 7.5615,-2.296 11,-4 z"
       id="path40" />
  </g>
  <g
     id="g41"
     transform="matrix(1.0210516,0,0,1.020384,39.134402,-1.1514254)">
    <path
       style="opacity:1"
       fill="#9d9c9b"
       d="m 138.5,485.5 c 6.683,-0.322 12.683,1.345 18,5 -6,-2.117 -12,-3.784 -18,-5 z"
       id="path41" />
  </g>
  <g
     id="g42"
     transform="matrix(1.0210516,0,0,1.020384,39.134402,-1.1514254)">
    <path
       style="opacity:1"
       fill="#90908e"
       d="m 918.5,485.5 c -3.005,1.777 -6.338,2.777 -10,3 3.005,-1.777 6.338,-2.777 10,-3 z"
       id="path42" />
  </g>
  <g
     id="g43"
     transform="matrix(1.0210516,0,0,1.020384,39.134402,-1.1514254)">
    <path
       style="opacity:1"
       fill="#252422"
       d="m 918.5,485.5 c 18.02,-0.25 36.02,0.084 54,1 3.439,1.704 7.105,3.038 11,4 23.24,11.097 35.57,29.597 37,55.5 -1.19,25.245 -12.86,43.745 -35,55.5 -3.895,0.962 -7.561,2.296 -11,4 -10.912,1.56 -21.912,2.226 -33,2 -8.507,0 -16.84,-0.334 -25,-1 -2.015,-1.424 -4.348,-2.09 -7,-2 -26.554,-10.755 -40.554,-30.589 -42,-59.5 2.352,-27.256 16.018,-46.09 41,-56.5 3.662,-0.223 6.995,-1.223 10,-3 z"
       id="path43" />
  </g>
  <g
     id="g44"
     transform="matrix(1.0210516,0,0,1.020384,39.134402,-1.1514254)">
    <path
       style="opacity:1"
       fill="#91908f"
       d="m 972.5,486.5 c 4.208,0.177 7.874,1.51 11,4 -3.895,-0.962 -7.561,-2.296 -11,-4 z"
       id="path44" />
  </g>
  <g
     id="g45"
     transform="matrix(1.0210516,0,0,1.020384,39.134402,-1.1514254)">
    <path
       style="opacity:1"
       fill="#989796"
       d="m 553.5,487.5 c 2.652,-0.09 4.985,0.576 7,2 -2.652,0.09 -4.985,-0.576 -7,-2 z"
       id="path45" />
  </g>
  <g
     id="g46"
     transform="matrix(1.0210516,0,0,1.020384,39.134402,-1.1514254)">
    <path
       style="opacity:1"
       fill="#818180"
       d="m 506.5,486.5 c -6.182,1.51 -12.515,2.843 -19,4 5.898,-2.847 12.231,-4.181 19,-4 z"
       id="path46" />
  </g>
  <g
     id="g47"
     transform="matrix(1.0210516,0,0,1.020384,39.134402,-1.1514254)">
    <path
       style="opacity:1"
       fill="#a8a7a7"
       d="m 563.5,490.5 c 2.991,-0.334 5.324,0.666 7,3 -2.657,-0.435 -4.991,-1.435 -7,-3 z"
       id="path47" />
  </g>
  <g
     id="g48"
     transform="matrix(1.0210516,0,0,1.020384,39.134402,-1.1514254)">
    <path
       style="opacity:1"
       fill="#8a8a88"
       d="m 482.5,534.5 c 1.527,-0.073 2.527,0.594 3,2 -1.527,0.073 -2.527,-0.594 -3,-2 z"
       id="path48" />
  </g>
  <g
     id="g49"
     transform="matrix(1.0210516,0,0,1.020384,39.134402,-1.1514254)">
    <path
       style="opacity:1"
       fill="#656463"
       d="m 494.5,539.5 c 3.416,0.028 6.416,1.028 9,3 -3.355,-0.19 -6.355,-1.19 -9,-3 z"
       id="path49" />
  </g>
  <g
     id="g50"
     transform="matrix(1.0210516,0,0,1.020384,39.134402,-1.1514254)">
    <path
       style="opacity:1"
       fill="#8d8c8b"
       d="m 516.5,544.5 c 8.906,0.192 17.573,1.192 26,3 -8.941,0.155 -17.607,-0.845 -26,-3 z"
       id="path50" />
  </g>
  <g
     id="g51"
     transform="matrix(1.0210516,0,0,1.020384,39.134402,-1.1514254)">
    <path
       style="opacity:1"
       fill="#7a7a79"
       d="m 561.5,549.5 c 4.624,0.263 8.958,1.263 13,3 -3.663,-0.452 -7.33,-0.952 -11,-1.5 -0.916,-0.278 -1.582,-0.778 -2,-1.5 z"
       id="path51" />
  </g>
  <g
     id="g52"
     transform="matrix(1.0210516,0,0,1.020384,39.134402,-1.1514254)">
    <path
       style="opacity:1"
       fill="#81807f"
       d="m 574.5,552.5 c 2.652,-0.09 4.985,0.576 7,2 -2.652,0.09 -4.985,-0.576 -7,-2 z"
       id="path52" />
  </g>
  <g
     id="g53"
     transform="matrix(1.0210516,0,0,1.020384,39.134402,-1.1514254)">
    <path
       style="opacity:1"
       fill="#8c8b8b"
       d="m 594.5,558.5 c 1.527,-0.073 2.527,0.594 3,2 -1.527,0.073 -2.527,-0.594 -3,-2 z"
       id="path53" />
  </g>
  <g
     id="g54"
     transform="matrix(1.0210516,0,0,1.020384,39.134402,-1.1514254)">
    <path
       style="opacity:1"
       fill="#afafae"
       d="m 460.5,592.5 c 2.991,-0.334 5.324,0.666 7,3 -2.657,-0.435 -4.991,-1.435 -7,-3 z"
       id="path54" />
  </g>
  <g
     id="g55"
     transform="matrix(1.0210516,0,0,1.020384,39.134402,-1.1514254)">
    <path
       style="opacity:1"
       fill="#aaa9a9"
       d="m 467.5,595.5 c 2.652,-0.09 4.985,0.576 7,2 -2.652,0.09 -4.985,-0.576 -7,-2 z"
       id="path55" />
  </g>
  <g
     id="g56"
     transform="matrix(1.0210516,0,0,1.020384,39.134402,-1.1514254)">
    <path
       style="opacity:1"
       fill="#7d7c7b"
       d="m 474.5,597.5 c 2.897,0.629 5.564,1.629 8,3 -3.216,0.155 -5.883,-0.845 -8,-3 z"
       id="path56" />
  </g>
  <g
     id="g57"
     transform="matrix(1.0210516,0,0,1.020384,39.134402,-1.1514254)">
    <path
       style="opacity:1"
       fill="#a2a1a0"
       d="m 985.5,601.5 c -3.126,2.49 -6.792,3.823 -11,4 3.439,-1.704 7.105,-3.038 11,-4 z"
       id="path57" />
  </g>
  <g
     id="g58"
     transform="matrix(1.0210516,0,0,1.020384,39.134402,-1.1514254)">
    <path
       style="opacity:1"
       fill="#aeaead"
       d="m 158.5,601.5 c -5.282,3.761 -11.282,5.761 -18,6 5.91,-1.938 11.91,-3.938 18,-6 z"
       id="path58" />
  </g>
  <g
     id="g59"
     transform="matrix(1.0210516,0,0,1.020384,39.134402,-1.1514254)">
    <path
       style="opacity:1"
       fill="#908f8e"
       d="m 909.5,604.5 c 2.652,-0.09 4.985,0.576 7,2 -2.652,0.09 -4.985,-0.576 -7,-2 z"
       id="path59" />
  </g>
  <g
     id="g60"
     transform="matrix(1.0210516,0,0,1.020384,39.134402,-1.1514254)">
    <path
       style="opacity:1"
       fill="#b7b7b6"
       d="m 82.5,604.5 c 4.5908,1.138 9.2575,1.971 14,2.5 13.329,0.5 26.663,0.667 40,0.5 -13.827,1.161 -27.827,1.327 -42,0.5 -4.3677,-0.293 -8.3677,-1.46 -12,-3.5 z"
       id="path60" />
  </g>
  <g
     id="g61"
     transform="matrix(1.0210516,0,0,1.020384,39.134402,-1.1514254)">
    <path
       style="opacity:1"
       fill="#7e7d7c"
       d="m 516.5,606.5 c 7.183,0.268 14.183,0.935 21,2 -7.238,0.32 -14.238,-0.347 -21,-2 z"
       id="path61" />
  </g>
  <g
     id="g62"
     transform="matrix(1.0210516,0,0,1.020384,39.134402,-1.1514254)">
    <path
       style="opacity:1"
       fill="#989797"
       d="m 547.5,609.5 c 7.143,0.2 13.81,1.867 20,5 -6.784,-1.671 -13.451,-3.338 -20,-5 z"
       id="path62" />
  </g>
  <g
     id="g63"
     transform="matrix(1.0210516,0,0,1.020384,39.134402,-1.1514254)">
    <path
       style="opacity:1"
       fill="#868584"
       d="m 497.5,663.5 c 3.662,0.223 6.995,1.223 10,3 -3.662,-0.223 -6.995,-1.223 -10,-3 z"
       id="path63" />
  </g>
  <g
     id="g64"
     transform="matrix(1.0210516,0,0,1.020384,39.134402,-1.1514254)">
    <path
       style="opacity:1"
       fill="#a4a3a2"
       d="m 577.5,661.5 c -2.117,2.155 -4.784,3.155 -8,3 2.436,-1.371 5.103,-2.371 8,-3 z"
       id="path64" />
  </g>
  <g
     id="g65"
     transform="matrix(1.0210516,0,0,1.020384,39.134402,-1.1514254)">
    <path
       style="opacity:1"
       fill="#858483"
       d="m 560.5,666.5 c -5.738,1.728 -11.738,2.395 -18,2 5.801,-1.182 11.801,-1.848 18,-2 z"
       id="path65" />
  </g>
  <g
     id="g66"
     transform="matrix(1.0210516,0,0,1.020384,39.134402,-1.1514254)">
    <path
       style="opacity:1"
       fill="#9f9e9d"
       d="m 472.5,719.5 c 6.267,1.422 12.267,3.422 18,6 -6.415,-1.027 -12.415,-3.027 -18,-6 z"
       id="path66" />
  </g>
  <g
     id="g67"
     transform="matrix(1.0210516,0,0,1.020384,39.134402,-1.1514254)">
    <path
       style="opacity:1"
       fill="#6e6d6c"
       d="m 596.5,719.5 c -2.117,2.155 -4.784,3.155 -8,3 2.436,-1.371 5.103,-2.371 8,-3 z"
       id="path67" />
  </g>
  <g
     id="g68"
     transform="matrix(1.0210516,0,0,1.020384,39.134402,-1.1514254)">
    <path
       style="opacity:1"
       fill="#a4a4a3"
       d="m 490.5,725.5 c 2.687,-0.164 5.354,0.003 8,0.5 0.556,0.383 0.889,0.883 1,1.5 -3.189,-0.358 -6.189,-1.025 -9,-2 z"
       id="path68" />
  </g>
  <g
     id="g69"
     transform="matrix(1.0210516,0,0,1.020384,39.134402,-1.1514254)">
    <path
       style="opacity:1"
       fill="#8d8d8c"
       d="m 499.5,727.5 c 0.995,10.821 1.328,21.821 1,33 20,0 40,0 60,0 -0.328,-10.846 0.006,-21.513 1,-32 0,11 0,22 0,33 -20.667,0 -41.333,0 -62,0 0,-11.333 0,-22.667 0,-34 z"
       id="path69" />
  </g>
  <g
     id="g70"
     transform="matrix(1.0210516,0,0,1.020384,39.134402,-1.1514254)">
    <path
       style="opacity:1"
       fill="#252422"
       d="m 568.5,1027.5 c -4.644,1.1 -8.978,2.77 -13,5 -5.64,1.16 -11.306,2.16 -17,3 -9.408,0.23 -18.741,-0.44 -28,-2 -0.333,0 -0.667,0 -1,0 -3.439,-1.7 -7.105,-3.04 -11,-4 -11.328,-3.5 -21.328,-9.33 -30,-17.5 -10.599,-10.02 -18.599,-21.851 -24,-35.5 -5.819,-0.667 -11.486,-1.333 -17,-2 -1.602,-1.574 -3.602,-2.241 -6,-2 -0.667,0 -1.333,0 -2,0 -1.533,-1.745 -3.533,-2.745 -6,-3 -0.891,-0.61 -1.891,-0.943 -3,-1 -0.473,-1.406 -1.473,-2.073 -3,-2 -16.828,-10.299 -26.661,-25.299 -29.5,-45 -0.5,-12.662 -0.667,-25.329 -0.5,-38 102,0 204,0 306,0 0.376,15.04 -0.124,30.04 -1.5,45 -7.788,24.788 -24.288,40.288 -49.5,46.5 -5.364,0.171 -10.698,0.671 -16,1.5 -9.459,23.324 -25.459,40.32 -48,51 z"
       id="path70" />
  </g>
  <g
     id="g71"
     transform="matrix(1.0210516,0,0,1.020384,39.134402,-1.1514254)">
    <path
       style="opacity:1"
       fill="#8c8c8a"
       d="m 407.5,966.5 c 1.527,-0.073 2.527,0.594 3,2 -1.527,0.073 -2.527,-0.594 -3,-2 z"
       id="path71" />
  </g>
  <g
     id="g72"
     transform="matrix(1.0210516,0,0,1.020384,39.134402,-1.1514254)">
    <path
       style="opacity:1"
       fill="#90908f"
       d="m 413.5,969.5 c 2.467,0.255 4.467,1.255 6,3 -2.467,-0.255 -4.467,-1.255 -6,-3 z"
       id="path72" />
  </g>
  <g
     id="g73"
     transform="matrix(1.0210516,0,0,1.020384,39.134402,-1.1514254)">
    <path
       style="opacity:1"
       fill="#878685"
       d="m 421.5,972.5 c 2.398,-0.241 4.398,0.426 6,2 -2.398,0.241 -4.398,-0.426 -6,-2 z"
       id="path73" />
  </g>
  <g
     id="g74"
     transform="matrix(1.0210516,0,0,1.020384,39.134402,-1.1514254)">
    <path
       style="opacity:1"
       fill="#a8a7a7"
       d="m 568.5,1027.5 c -0.111,0.62 -0.444,1.12 -1,1.5 -3.947,1.48 -7.947,2.65 -12,3.5 4.022,-2.23 8.356,-3.9 13,-5 z"
       id="path74" />
  </g>
  <g
     id="g75"
     transform="matrix(1.0210516,0,0,1.020384,39.134402,-1.1514254)">
    <path
       style="opacity:1"
       fill="#908f8e"
       d="m 498.5,1029.5 c 3.895,0.96 7.561,2.3 11,4 -4.208,-0.18 -7.874,-1.51 -11,-4 z"
       id="path75" />
  </g>
  <g
     id="g76"
     transform="matrix(1.0210516,0,0,1.020384,39.134402,-1.1514254)">
    <path
       style="opacity:1"
       fill="#b6b5b5"
       d="m 510.5,1033.5 c 9.259,1.56 18.592,2.23 28,2 -6.153,1.15 -12.486,1.32 -19,0.5 -3.297,-0.2 -6.297,-1.04 -9,-2.5 z"
       id="path76" />
  </g>
</svg>
