<?xml version="1.0" encoding="UTF-8"?>
<!DOCTYPE svg PUBLIC "-//W3C//DTD SVG 1.1//EN" "http://www.w3.org/Graphics/SVG/1.1/DTD/svg11.dtd">
<svg xmlns="http://www.w3.org/2000/svg" version="1.1" width="2000px" height="1500px" style="shape-rendering:geometricPrecision; text-rendering:geometricPrecision; image-rendering:optimizeQuality; fill-rule:evenodd; clip-rule:evenodd" xmlns:xlink="http://www.w3.org/1999/xlink">
<g><path style="opacity:1" fill="#fefefe" d="M -0.5,-0.5 C 666.167,-0.5 1332.83,-0.5 1999.5,-0.5C 1999.5,499.5 1999.5,999.5 1999.5,1499.5C 1332.83,1499.5 666.167,1499.5 -0.5,1499.5C -0.5,999.5 -0.5,499.5 -0.5,-0.5 Z"/></g>
<g><path style="opacity:1" fill="#252422" d="M 990.5,261.5 C 1027.08,260.361 1050.24,277.361 1060,312.5C 1060.67,328.5 1060.67,344.5 1060,360.5C 1051.94,397.891 1028.77,415.725 990.5,414C 960.86,407.028 943.693,388.528 939,358.5C 938.333,343.167 938.333,327.833 939,312.5C 946.116,285.217 963.282,268.217 990.5,261.5 Z"/></g>
<g><path style="opacity:1" fill="#252422" d="M 685.5,387.5 C 703.34,385.356 719.673,389.189 734.5,399C 746,410.5 757.5,422 769,433.5C 782.957,453.838 785.29,475.505 776,498.5C 758.342,528.058 732.842,538.224 699.5,529C 693.34,526.423 687.673,523.09 682.5,519C 671.667,508.167 660.833,497.333 650,486.5C 632.046,460.824 632.046,435.157 650,409.5C 659.61,398.452 671.443,391.118 685.5,387.5 Z"/></g>
<g><path style="opacity:1" fill="#252422" d="M 1288.5,387.5 C 1320.31,383.986 1343.48,396.32 1358,424.5C 1365.36,444.835 1363.36,464.169 1352,482.5C 1339.8,496.367 1326.63,509.2 1312.5,521C 1280.25,536.931 1252.75,531.097 1230,503.5C 1215.34,479.001 1216,455.001 1232,431.5C 1242.5,421 1253,410.5 1263.5,400C 1271.35,394.743 1279.68,390.577 1288.5,387.5 Z"/></g>
<g><path style="opacity:1" fill="#252422" d="M 976.5,475.5 C 1076.18,470.771 1157.01,507.105 1219,584.5C 1270.83,656.651 1285.83,735.984 1264,822.5C 1251.32,864.857 1232.99,904.524 1209,941.5C 1190.36,968.971 1171.53,996.304 1152.5,1023.5C 1050.5,1024.83 948.5,1024.83 846.5,1023.5C 827.472,996.304 808.638,968.971 790,941.5C 761.508,898.175 741.508,851.175 730,800.5C 713.743,699.267 742.909,613.767 817.5,544C 863.266,504.571 916.266,481.738 976.5,475.5 Z"/></g>
<g><path style="opacity:1" fill="#fdfdfd" d="M 968.5,597.5 C 989.167,597.5 1009.83,597.5 1030.5,597.5C 1030.5,608.833 1030.5,620.167 1030.5,631.5C 1062.03,636.005 1087.53,650.672 1107,675.5C 1107.68,676.784 1107.52,677.951 1106.5,679C 1090.25,689.709 1074.08,700.543 1058,711.5C 1045.68,698.594 1030.52,691.428 1012.5,690C 999.833,689.333 987.167,689.333 974.5,690C 961.82,690.928 950.987,695.761 942,704.5C 934.82,719.29 938.32,730.79 952.5,739C 960.112,742.805 968.112,745.471 976.5,747C 997.562,749.21 1018.56,751.876 1039.5,755C 1064.92,759.955 1086.42,771.788 1104,790.5C 1123.14,817.028 1126.81,845.694 1115,876.5C 1106.53,896.974 1092.03,911.474 1071.5,920C 1058.37,925.592 1044.71,929.092 1030.5,930.5C 1030.5,941.5 1030.5,952.5 1030.5,963.5C 1009.83,963.5 989.167,963.5 968.5,963.5C 968.5,952.167 968.5,940.833 968.5,929.5C 936.423,924.638 910.756,909.305 891.5,883.5C 907.702,871.809 924.202,860.476 941,849.5C 953.644,862.737 969.144,869.904 987.5,871C 1004.01,872.339 1020.34,871.339 1036.5,868C 1057.94,863.274 1064.78,850.774 1057,830.5C 1052.96,825.898 1048.13,822.398 1042.5,820C 1036,817.415 1029.33,815.415 1022.5,814C 1001.73,812.211 981.064,809.544 960.5,806C 935.452,800.896 913.952,789.396 896,771.5C 877.288,746.316 872.621,718.649 882,688.5C 893.395,660.866 913.561,643.032 942.5,635C 950.999,632.334 959.666,630.5 968.5,629.5C 968.5,618.833 968.5,608.167 968.5,597.5 Z"/></g>
<g><path style="opacity:1" fill="#252422" d="M 564.5,688.5 C 579.504,688.333 594.504,688.5 609.5,689C 638.704,693.873 656.538,710.706 663,739.5C 666.093,770.153 653.927,792.32 626.5,806C 621.989,807.925 617.323,809.258 612.5,810C 595.167,810.667 577.833,810.667 560.5,810C 525.445,799.596 509.278,776.096 512,739.5C 519.227,711.771 536.727,694.771 564.5,688.5 Z"/></g>
<g><path style="opacity:1" fill="#252422" d="M 1388.5,688.5 C 1402.5,688.333 1416.5,688.5 1430.5,689C 1460.64,693.143 1479.48,709.976 1487,739.5C 1490,766.197 1480.5,787.03 1458.5,802C 1451.03,806.266 1443.03,808.933 1434.5,810C 1417.83,810.667 1401.17,810.667 1384.5,810C 1348.43,799.249 1332.27,775.083 1336,737.5C 1343.42,710.243 1360.92,693.909 1388.5,688.5 Z"/></g>
<g><path style="opacity:1" fill="#252422" d="M 847.5,1085.5 C 948.833,1085.5 1050.17,1085.5 1151.5,1085.5C 1151.67,1098.84 1151.5,1112.17 1151,1125.5C 1142.77,1159.71 1120.93,1176.88 1085.5,1177C 1069.31,1215.32 1040.31,1235.49 998.5,1237.5C 963.484,1235.42 936.984,1219.42 919,1189.5C 917.163,1185.32 915.329,1181.15 913.5,1177C 887.26,1177.73 867.427,1166.9 854,1144.5C 851.77,1140.04 850.103,1135.37 849,1130.5C 847.584,1115.55 847.084,1100.55 847.5,1085.5 Z"/></g>
</svg>
