<?xml version="1.0" standalone="no"?>
<!DOCTYPE svg PUBLIC "-//W3C//DTD SVG 20010904//EN"
 "http://www.w3.org/TR/2001/REC-SVG-20010904/DTD/svg10.dtd">
<svg version="1.0" xmlns="http://www.w3.org/2000/svg"
 width="2000.000000pt" height="2000.000000pt" viewBox="0 0 2000.000000 2000.000000"
 preserveAspectRatio="xMidYMid meet">

<g transform="translate(0.000000,2000.000000) scale(0.100000,-0.100000)"
fill="#000000" stroke="none">
<path d="M9765 19730 c-242 -51 -430 -149 -602 -312 -113 -109 -192 -217 -258
-352 -60 -124 -89 -215 -110 -356 -21 -134 -21 -824 -1 -960 39 -253 152 -484
331 -668 171 -178 372 -290 635 -354 37 -9 119 -13 250 -12 180 0 203 2 295
28 492 134 843 537 905 1036 13 110 13 790 0 900 -17 133 -56 265 -114 386
-158 322 -443 556 -794 650 -134 36 -400 43 -537 14z"/>
<path d="M3795 17239 c-572 -89 -988 -526 -1047 -1101 -28 -269 52 -568 214
-805 67 -100 619 -659 738 -749 208 -158 469 -244 735 -244 523 0 989 338
1154 836 123 369 55 792 -176 1105 -66 90 -633 660 -724 728 -135 102 -306
179 -481 217 -86 19 -328 27 -413 13z"/>
<path d="M15895 17243 c-63 -7 -221 -46 -282 -69 -210 -79 -291 -140 -626
-473 -309 -306 -372 -381 -447 -524 -316 -606 -76 -1349 535 -1654 175 -88
341 -127 545 -127 263 0 493 73 710 224 101 71 629 599 700 700 102 147 180
335 211 510 19 107 17 326 -5 430 -111 528 -513 906 -1041 979 -72 10 -233 13
-300 4z"/>
<path d="M9665 15473 c-307 -24 -552 -56 -760 -99 -912 -190 -1723 -582 -2446
-1185 -152 -127 -501 -473 -633 -629 -663 -779 -1098 -1728 -1250 -2720 -50
-323 -60 -461 -60 -835 0 -372 8 -491 59 -815 164 -1061 664 -2198 1513 -3444
74 -109 273 -391 441 -627 169 -235 333 -471 365 -524 l60 -95 3047 0 3047 0
40 68 c50 84 168 253 443 637 339 473 491 697 709 1045 637 1019 1044 2026
1185 2940 73 471 84 961 30 1426 -245 2122 -1691 3906 -3715 4584 -430 144
-892 236 -1355 270 -126 9 -620 11 -720 3z m945 -2766 l0 -334 107 -22 c491
-103 958 -349 1259 -663 90 -94 198 -232 192 -247 -1 -6 -228 -161 -502 -346
l-500 -335 -30 37 c-172 211 -518 362 -926 404 -146 15 -531 6 -700 -16 -526
-70 -751 -255 -727 -598 19 -286 337 -475 942 -561 61 -9 219 -25 353 -36 358
-30 567 -63 829 -130 458 -118 817 -310 1078 -575 218 -221 359 -486 425 -800
27 -129 37 -380 21 -530 -92 -855 -676 -1398 -1685 -1566 l-136 -23 0 -323 0
-323 -610 0 -610 0 0 334 c0 374 8 338 -75 351 -63 11 -223 52 -305 79 -274
89 -552 240 -780 422 -101 81 -296 275 -362 361 l-47 60 505 337 505 337 67
-69 c171 -176 456 -303 807 -358 148 -23 532 -23 730 1 482 57 719 190 770
431 66 309 -80 500 -484 634 -199 67 -424 105 -796 135 -911 74 -1520 301
-1920 717 -298 308 -445 681 -445 1125 0 576 242 1066 678 1373 266 187 646
330 1037 390 39 5 80 12 93 15 l22 5 0 320 0 320 610 0 610 0 0 -333z"/>
<path d="M1275 11199 c-156 -23 -369 -107 -507 -200 -87 -60 -220 -189 -291
-284 -110 -149 -192 -341 -223 -530 -21 -130 -14 -343 16 -465 117 -481 479
-828 968 -927 75 -16 145 -18 517 -18 457 0 497 3 661 50 272 79 520 266 680
512 78 121 141 279 170 430 24 118 23 348 0 458 -110 512 -492 882 -1000 970
-71 12 -172 15 -510 14 -231 -1 -448 -5 -481 -10z"/>
<path d="M17725 11194 c-177 -33 -325 -92 -470 -189 -268 -178 -450 -451 -521
-780 -23 -110 -24 -340 0 -458 100 -509 492 -889 1010 -980 104 -18 895 -17
996 2 375 68 691 293 874 623 155 280 188 654 85 962 -63 188 -171 358 -315
497 -167 159 -337 251 -584 315 -93 25 -953 31 -1075 8z"/>
<path d="M6953 2888 c4 -353 6 -402 25 -478 116 -481 483 -839 960 -935 45 -9
141 -20 213 -23 l130 -7 43 -100 c240 -552 730 -945 1331 -1065 137 -28 426
-38 561 -21 219 29 398 83 589 176 407 199 720 536 891 954 l22 56 131 7 c72
3 168 14 213 23 523 105 912 522 978 1048 5 45 10 233 10 419 l0 338 -3051 0
-3051 0 5 -392z"/>
</g>
</svg>
