<?xml version="1.0" standalone="no"?>
<!DOCTYPE svg PUBLIC "-//W3C//DTD SVG 20010904//EN"
 "http://www.w3.org/TR/2001/REC-SVG-20010904/DTD/svg10.dtd">
<svg version="1.0" xmlns="http://www.w3.org/2000/svg"
 width="2000.000000pt" height="1500.000000pt" viewBox="0 0 2000.000000 1500.000000"
 preserveAspectRatio="xMidYMid meet">

<g transform="translate(0.000000,1500.000000) scale(0.100000,-0.100000)"
fill="#000000" stroke="none">
<path d="M9910 12370 c-246 -38 -455 -235 -505 -475 -20 -97 -20 -463 0 -559
24 -114 78 -210 170 -301 124 -124 255 -179 425 -179 286 0 536 202 595 481
10 47 15 133 15 278 0 145 -5 231 -15 278 -44 206 -207 389 -405 451 -87 28
-201 38 -280 26z"/>
<path d="M6825 11105 c-134 -37 -276 -139 -351 -252 -21 -31 -51 -96 -68 -143
-27 -75 -30 -98 -30 -195 0 -94 4 -122 28 -190 42 -122 90 -186 284 -376 153
-151 187 -180 252 -211 141 -69 280 -85 424 -48 115 29 189 73 281 165 123
122 176 247 177 420 0 108 -20 193 -70 290 -29 58 -68 102 -226 261 -206 207
-257 243 -393 278 -74 20 -238 20 -308 1z"/>
<path d="M12855 11101 c-132 -39 -178 -71 -371 -265 -160 -159 -186 -190 -218
-256 -91 -188 -85 -396 17 -580 17 -30 63 -87 102 -126 117 -116 259 -174 425
-174 104 0 180 18 280 67 66 32 96 57 251 212 162 162 180 183 218 261 93 190
92 361 0 550 -75 152 -221 271 -389 315 -76 20 -239 18 -315 -4z"/>
<path d="M9740 10230 c-627 -65 -1194 -326 -1637 -754 -443 -428 -709 -933
-814 -1550 -27 -155 -37 -524 -20 -689 42 -395 179 -820 402 -1245 141 -271
301 -522 594 -932 92 -129 177 -251 188 -272 l22 -38 1525 0 1525 0 21 38 c12
20 100 147 196 282 220 309 312 446 425 635 326 541 512 1047 564 1532 17 167
7 534 -20 693 -103 604 -371 1117 -803 1536 -424 411 -934 661 -1533 750 -119
18 -513 26 -635 14z m572 -1377 l3 -166 91 -23 c268 -68 498 -205 637 -382
l47 -61 -252 -170 -252 -170 -56 52 c-139 129 -363 185 -661 167 -224 -14
-355 -55 -424 -131 -79 -88 -71 -240 17 -314 82 -69 247 -124 434 -144 54 -6
164 -18 244 -27 397 -42 678 -158 864 -354 179 -190 250 -445 201 -725 -65
-371 -329 -608 -780 -700 l-110 -22 -3 -162 -2 -161 -310 0 -310 0 0 168 0
167 -110 27 c-230 56 -464 198 -616 377 l-55 64 252 168 252 168 55 -50 c63
-57 167 -110 278 -141 69 -19 105 -22 284 -23 162 0 223 4 290 18 201 43 290
126 290 268 -1 164 -180 266 -537 304 -76 8 -183 20 -238 26 -430 46 -756 207
-921 454 -100 151 -142 311 -131 503 23 407 261 682 690 796 50 14 112 27 137
31 87 12 80 -2 80 176 l0 159 310 0 310 0 2 -167z"/>
<path d="M5641 8098 c-134 -19 -260 -86 -358 -191 -314 -336 -148 -888 302
-1002 72 -18 493 -21 577 -4 169 35 339 169 416 329 51 106 66 182 60 302 -15
295 -234 529 -531 568 -90 12 -380 11 -466 -2z"/>
<path d="M13915 8104 c-247 -33 -431 -172 -517 -389 -39 -101 -50 -249 -24
-357 40 -173 166 -330 326 -406 47 -22 109 -45 138 -51 84 -17 505 -14 577 4
223 57 404 242 450 461 30 141 9 290 -57 417 -45 86 -173 213 -258 254 -116
57 -164 65 -395 68 -115 2 -223 1 -240 -1z"/>
<path d="M8480 3942 c0 -218 8 -269 60 -375 100 -201 313 -337 528 -337 l70 0
22 -52 c67 -160 218 -333 367 -422 315 -187 697 -173 998 35 129 89 249 235
311 377 l25 59 97 5 c240 13 447 170 534 405 19 51 22 83 26 281 l4 222 -1521
0 -1521 0 0 -198z"/>
</g>
</svg>
